<svg width="390" height="70" viewBox="0 0 390 70" fill="none" xmlns="http://www.w3.org/2000/svg">
<path fill-rule="evenodd" clip-rule="evenodd" d="M0 31.0699L13 29.4478C26 27.8257 52 24.5815 78 26.2036C104 27.8257 130 34.3141 156 32.692C182 31.0699 208 21.3374 234 13.2269C260 5.11649 286 -1.37186 312 0.250225C338 1.87231 364 11.6048 377 16.4711L390 21.3374V70H377C364 70 338 70 312 70C286 70 260 70 234 70C208 70 182 70 156 70C130 70 104 70 78 70C52 70 26 70 13 70H0V31.0699Z" fill="#F26D7E"/>
</svg>
